<svg viewBox="-4 0 512 512.01119" xmlns="http://www.w3.org/2000/svg"><path d="m68.449219 163.855469c-31.539063 15.9375-51.410157 48.28125-51.378907 83.621093.0625 51.816407 42.050782 93.808594 93.867188 93.867188h2.433594c2.058594 11.878906 5.625 23.445312 10.617187 34.421875 23.574219 51.738281 75.160157 84.972656 132.015625 85.042969 4.714844 0 8.535156-3.820313 8.535156-8.53125v-123.925782l115.015626 46.003907c1.007812.402343 2.082031.609375 3.167968.613281l.066406-.011719c.09375 0 .179688-.035156.273438-.039062 1.910156-.113281 3.730469-.851563 5.183594-2.097657.246094-.195312.476562-.40625.695312-.628906.664063-.699218 1.199219-1.503906 1.589844-2.386718.023438-.054688.070312-.085938.089844-.136719l.015625-.042969.015625-.023438.003906-.035156c3.6875-9.09375 6.398438-18.554687 8.089844-28.222656h2.324218c51.84375 0 93.867188-42.027344 93.867188-93.867188 0-51.839843-42.023438-93.867187-93.867188-93.867187h-2.972656c1.945313-6.945313 2.949219-14.121094 2.972656-21.332031.078126-28.269532-14.617187-54.527344-38.753906-69.246094-24.136718-14.71875-54.207031-15.761719-79.304687-2.746094-26.855469-47.070312-82.023438-70.171875-134.402344-56.285156-52.382813 13.886719-88.859375 61.285156-88.871094 115.476562.015625 15.214844 2.972657 30.285157 8.710938 44.378907zm59.554687 151.886719c-.011718-35.890626 15.109375-70.121094 41.644532-94.285157l72.84375 91.054688-106.117188 48.25c-5.519531-14.367188-8.355469-29.625-8.371094-45.019531zm119.46875 127.6875c-43.925781-3-83.242187-28.328126-104.132812-67.085938l104.132812-47.347656zm130.175782-88.222657-116.382813-46.550781-78.367187-97.957031c39.117187-27.242188 90.132812-30.484375 132.382812-8.414063 42.25 22.066406 68.734375 65.789063 68.722656 113.457032.003906 13.410156-2.140625 26.734374-6.355468 39.464843zm-269.980469-162.492187c-19.753907-19.246094-30.886719-45.660156-30.863281-73.238282.023437-47.917968 33.253906-89.417968 80.007812-99.910156 46.753906-10.496094 94.535156 12.816406 115.035156 56.125.09375.199219.269532.320313.378906.507813.105469.1875.117188.398437.238282.578125.234375.269531.488281.519531.761718.753906.359376.445312.765626.847656 1.210938 1.207031 1.769531 1.265625 3.933594 1.859375 6.101562 1.671875.550782-.082031 1.089844-.214844 1.609376-.402344.363281-.066406.71875-.15625 1.070312-.269531.199219-.09375.320312-.273437.507812-.378906.1875-.109375.394532-.117187.574219-.238281 19.636719-13.160156 44.929688-14.4375 65.789063-3.316406 20.863281 11.121093 33.898437 32.832031 33.914062 56.472656.023438 9.082031-1.921875 18.058594-5.707031 26.316406l-.027344.113281c-.273437 1.097657-.515625 2.207031-.722656 3.320313l-.027344.117187c.050781.398438.128907.796875.238281 1.183594.054688.664063.1875 1.316406.394532 1.949219.546875.941406 1.132812 1.855468 1.761718 2.742187.496094.460938 1.046876.863281 1.636719 1.195313.300781.253906.621094.484375.953125.691406l.109375.023438c1.066407.476562 2.21875.730468 3.386719.738281l.054688.007812h15.015624c42.417969 0 76.800782 34.386719 76.800782 76.800781 0 42.414063-34.382813 76.800782-76.800782 76.800782h-.398437c.164063-2.839844.398437-5.660156.398437-8.535156 0-80.117188-64.945312-145.066407-145.066406-145.066407-80.117187 0-145.066406 64.949219-145.066406 145.066407 0 2.875.285156 5.691406.449219 8.535156h-.449219c-31.0625.003906-59.066406-18.707032-70.953125-47.40625-11.886719-28.699219-5.3125-61.730469 16.660156-83.691406 5.613281-5.628907 12.082031-10.335938 19.164063-13.945313 5.429687 9.457031 12.152344 18.113281 19.96875 25.722656 3.378906 3.28125 8.78125 3.203125 12.066406-.175781s3.207031-8.785156-.175781-12.066406zm0 0"/><path d="m293.308594 359.019531c-2.628906-1.054687-5.609375-.734375-7.953125.855469-2.347657 1.585938-3.75 4.234375-3.75 7.070312v136.53125c0 4.714844 3.820312 8.535157 8.535156 8.535157 59.386719.222656 112.835937-35.988281 134.648437-91.222657 1.742188-4.375-.386718-9.332031-4.757812-11.085937zm5.363281 135.644531v-115.113281l106.851563 42.738281c-19.796876 41.765626-60.71875 69.484376-106.851563 72.375zm0 0"/><path d="m53.679688 258.484375c-3.320313 3.351563-3.3125 8.757813.023437 12.09375 3.339844 3.335937 8.746094 3.347656 12.09375.023437 3.324219-3.347656 3.3125-8.753906-.023437-12.09375-3.335938-3.335937-8.742188-3.347656-12.09375-.023437zm0 0"/><path d="m87.8125 258.484375c-3.3125 3.339844-3.296875 8.730469.035156 12.050781 3.328125 3.324219 8.71875 3.324219 12.050782 0 3.332031-3.320312 3.34375-8.710937.03125-12.050781-3.425782-3.144531-8.6875-3.144531-12.117188 0zm0 0"/><path d="m87.8125 292.617188c-3.3125 3.339843-3.296875 8.730468.035156 12.050781 3.328125 3.324219 8.71875 3.324219 12.050782 0 3.332031-3.320313 3.34375-8.710938.03125-12.050781-3.425782-3.144532-8.6875-3.144532-12.117188 0zm0 0"/><path d="m418.140625 273.078125c4.019531-.042969 7.457031-2.910156 8.210937-6.863281.757813-3.949219-1.378906-7.886719-5.101562-9.40625-3.726562-1.519532-8.003906-.207032-10.230469 3.144531-2.226562 3.347656-1.78125 7.804687 1.0625 10.648437 1.636719 1.558594 3.796875 2.441407 6.058594 2.476563zm0 0"/><path d="m418.140625 307.101562c4.019531-.039062 7.457031-2.910156 8.210937-6.859374.757813-3.949219-1.378906-7.886719-5.101562-9.40625-3.726562-1.523438-8.003906-.207032-10.230469 3.144531-2.226562 3.347656-1.78125 7.804687 1.0625 10.648437 1.636719 1.558594 3.796875 2.441406 6.058594 2.472656zm0 0"/><path d="m452.273438 273.078125c4.019531-.042969 7.457031-2.910156 8.210937-6.863281.757813-3.949219-1.378906-7.886719-5.101563-9.40625-3.722656-1.519532-8.003906-.207032-10.230468 3.144531-2.226563 3.347656-1.78125 7.804687 1.0625 10.648437 1.636718 1.558594 3.796875 2.441407 6.058594 2.476563zm0 0"/><path d="m85.339844 409.609375c0-4.710937-3.820313-8.53125-8.535156-8.53125-4.710938 0-8.53125 3.820313-8.53125 8.53125v8.535156c0 4.710938 3.820312 8.53125 8.53125 8.53125 4.714843 0 8.535156-3.820312 8.535156-8.53125zm0 0"/><path d="m76.804688 469.34375c4.714843 0 8.535156-3.820312 8.535156-8.535156v-8.53125c0-4.714844-3.820313-8.535156-8.535156-8.535156-4.710938 0-8.53125 3.820312-8.53125 8.535156v8.53125c0 4.714844 3.820312 8.535156 8.53125 8.535156zm0 0"/><path d="m59.738281 426.675781h-8.53125c-4.714843 0-8.535156 3.820313-8.535156 8.535157 0 4.710937 3.820313 8.53125 8.535156 8.53125h8.53125c4.714844 0 8.535157-3.820313 8.535157-8.53125 0-4.714844-3.820313-8.535157-8.535157-8.535157zm0 0"/><path d="m93.871094 443.742188h8.535156c4.710938 0 8.53125-3.820313 8.53125-8.53125 0-4.714844-3.820312-8.535157-8.53125-8.535157h-8.535156c-4.710938 0-8.53125 3.820313-8.53125 8.535157 0 4.710937 3.820312 8.53125 8.53125 8.53125zm0 0"/><path d="m469.339844 76.808594c18.851562 0 34.132812-15.28125 34.132812-34.132813 0-18.851562-15.28125-34.132812-34.132812-34.132812-18.851563 0-34.132813 15.28125-34.132813 34.132812.019531 18.84375 15.289063 34.113281 34.132813 34.132813zm0-51.199219c9.425781 0 17.066406 7.640625 17.066406 17.066406s-7.640625 17.066407-17.066406 17.066407c-9.425782 0-17.066406-7.640626-17.066406-17.066407.007812-9.421875 7.644531-17.054687 17.066406-17.066406zm0 0"/><path d="m34.140625 68.277344c18.851563 0 34.132813-15.28125 34.132813-34.132813 0-18.851562-15.28125-34.1328122-34.132813-34.1328122s-34.13671875 15.2812502-34.13671875 34.1328122c.02343755 18.839844 15.29296875 34.109375 34.13671875 34.132813zm0-51.199219c9.425781 0 17.066406 7.640625 17.066406 17.066406s-7.640625 17.066407-17.066406 17.066407-17.070313-7.640626-17.070313-17.066407c.011719-9.421875 7.648438-17.058593 17.070313-17.066406zm0 0"/></svg>