<svg class="ico" xmlns="http://www.w3.org/2000/svg" viewBox="0 0 379.2 386.8"><path fill="currentColor" d="M339.1 122c.2 3.3.2 6.7.2 10 0 102-77.6 219.5-219.5 219.5-43.7 0-84.3-12.7-118.5-34.6 6.2.7 12.2 1 18.6 1 36.1 0 69.3-12.2 95.8-33-33.9-.7-62.3-22.9-72.1-53.5 4.8.7 9.6 1.2 14.6 1.2 6.9 0 13.9-1 20.3-2.6-35.4-7.2-61.9-38.2-61.9-75.7v-1c10.3 5.7 22.2 9.3 34.9 9.8-20.8-13.9-34.4-37.5-34.4-64.3 0-14.3 3.8-27.5 10.5-38.9 38 46.8 95.1 77.4 159.1 80.7-1.2-5.7-1.9-11.7-1.9-17.7 0-42.5 34.4-77.1 77.1-77.1 22.2 0 42.3 9.3 56.4 24.4 17.4-3.3 34.2-9.8 49-18.6-5.7 17.9-17.9 33-33.9 42.5 15.5-1.7 30.6-6 44.4-11.9-10.5 15.2-23.6 28.8-38.7 39.8z"></path></svg>